<svg width="752" height="751" viewBox="0 0 752 751" fill="none" xmlns="http://www.w3.org/2000/svg">
<path d="M364 696C340.252 696 321 676.748 321 653V110C321 79.6244 345.624 55 376 55V55C406.376 55 431 79.6244 431 110V653C431 676.748 411.748 696 388 696H364Z" fill="black"/>
<path d="M147.406 320.207C130.613 303.414 130.613 276.188 147.406 259.395L336.91 69.8908C358.389 48.412 393.213 48.412 414.692 69.8908V69.8908C436.171 91.3697 436.171 126.194 414.692 147.673L225.187 337.177C208.395 353.97 181.169 353.97 164.376 337.177L147.406 320.207Z" fill="black"/>
<path d="M587.207 338.177C570.414 354.97 543.188 354.97 526.395 338.177L336.891 148.673C315.412 127.194 315.412 92.3698 336.891 70.891V70.891C358.37 49.4121 393.194 49.4121 414.673 70.891L604.177 260.396C620.97 277.188 620.97 304.414 604.177 321.207L587.207 338.177Z" fill="black"/>
</svg>
