<svg width="229" height="196" viewBox="0 0 229 196" fill="none" xmlns="http://www.w3.org/2000/svg">
<rect width="208" height="176" rx="18" fill="#343434"/>
<rect x="40" y="42" width="156" height="120" fill="#232323"/>
<path d="M211.515 18.5146H36.4853C31.986 18.5198 27.6725 20.3095 24.491 23.491C21.3095 26.6725 19.5198 30.986 19.5146 35.4854V178.515C19.5198 183.014 21.3095 187.328 24.491 190.509C27.6725 193.691 31.986 195.48 36.4853 195.485H211.515C216.014 195.48 220.328 193.691 223.509 190.509C226.691 187.328 228.48 183.014 228.485 178.515V35.4854C228.48 30.986 226.691 26.6725 223.509 23.491C220.328 20.3095 216.014 18.5198 211.515 18.5146ZM116.997 113.247L76.9971 145.247C76.1768 145.904 75.235 146.394 74.2256 146.687C73.2162 146.98 72.1589 147.071 71.1142 146.956C70.0694 146.84 69.0577 146.519 68.1369 146.012C67.216 145.506 66.4041 144.822 65.7475 144.001C65.0909 143.181 64.6026 142.238 64.3103 141.229C64.018 140.219 63.9276 139.162 64.0442 138.117C64.1608 137.072 64.4821 136.061 64.9898 135.141C65.4974 134.22 66.1815 133.409 67.0029 132.753L99.1934 107L67.0029 81.2471C66.1815 80.5912 65.4974 79.7799 64.9898 78.8595C64.4821 77.9391 64.1608 76.9276 64.0442 75.883C63.9276 74.8384 64.018 73.781 64.3103 72.7713C64.6026 71.7616 65.0909 70.8194 65.7475 69.9986C66.4041 69.1778 67.216 68.4944 68.1369 67.9875C69.0577 67.4806 70.0694 67.1602 71.1142 67.0445C72.1589 66.9288 73.2162 67.0201 74.2256 67.3133C75.235 67.6064 76.1768 68.0956 76.9971 68.7529L116.997 100.753C117.934 101.502 118.69 102.453 119.21 103.534C119.73 104.616 120 105.8 120 107C120 108.2 119.73 109.384 119.21 110.466C118.69 111.547 117.934 112.498 116.997 113.247ZM175.994 147H135.994C133.872 147 131.838 146.157 130.337 144.657C128.837 143.157 127.994 141.122 127.994 139C127.994 136.878 128.837 134.843 130.337 133.343C131.838 131.843 133.872 131 135.994 131H175.994C178.116 131 180.151 131.843 181.651 133.343C183.151 134.843 183.994 136.878 183.994 139C183.994 141.122 183.151 143.157 181.651 144.657C180.151 146.157 178.116 147 175.994 147Z" fill="#3391EE"/>
</svg>
