<svg width="98" height="22" fill="none" xmlns="http://www.w3.org/2000/svg"><path d="M43.314 1.067h-4.031L30.5 10.422V1.098H27.27v20.273H30.5v-9.82l8.814 9.82h4.177l-9.397-10.484 9.22-9.82Z" fill="#fff"></path><path d="M54.303 7.186c-1.153-.66-2.45-.994-3.901-.994-1.478 0-2.803.33-3.973.994a7.042 7.042 0 0 0-2.735 2.758c-.65 1.179-.976 2.515-.976 4.01 0 1.494.325 2.835.972 4.01a6.967 6.967 0 0 0 2.716 2.758c1.166.659 2.486.993 3.964.993 1.46 0 2.766-.33 3.923-.993a6.941 6.941 0 0 0 2.694-2.759c.642-1.178.963-2.515.963-4.01 0-1.494-.32-2.83-.963-4.009a6.949 6.949 0 0 0-2.684-2.758Zm-.204 9.328c-.357.74-.859 1.314-1.505 1.73-.646.415-1.392.622-2.233.622-.85 0-1.604-.207-2.26-.623a4.184 4.184 0 0 1-1.528-1.73c-.361-.74-.542-1.589-.542-2.555 0-.966.185-1.815.551-2.555a4.177 4.177 0 0 1 1.537-1.73c.656-.415 1.415-.623 2.278-.623.832 0 1.573.208 2.22.623a4.125 4.125 0 0 1 1.5 1.73c.353.74.529 1.59.529 2.555-.009.962-.19 1.815-.547 2.556ZM64.555 2.836h-3.132v2.52c0 .397-.095.695-.29.889-.194.198-.492.298-.899.298h-1.537v2.664h2.667v7.978c0 .83.167 1.562.506 2.194a3.591 3.591 0 0 0 1.442 1.472c.624.348 1.36.52 2.21.52h2.391v-2.782h-1.798c-.466 0-.841-.163-1.13-.483-.29-.325-.434-.75-.434-1.282V9.207h3.448V6.543h-3.448V2.836h.004ZM73.68.286h-3.186V21.37h3.187V.286ZM80.498.312H77.28v3.273h3.218V.312ZM80.466 6.544H77.28V21.37h3.186V6.544ZM96.67 8.99a4.969 4.969 0 0 0-1.899-2.054c-.818-.492-1.772-.74-2.866-.74-1.161 0-2.178.284-3.05.848-.697.447-1.257 1.052-1.7 1.797l-.018-2.298H84.09V21.37h3.191v-8.298c0-.8.154-1.513.457-2.136a3.39 3.39 0 0 1 1.293-1.45c.556-.342 1.202-.514 1.948-.514.669 0 1.238.14 1.717.42.48.28.841.682 1.085 1.201.249.52.37 1.142.37 1.87v8.907h3.192v-9.355c0-1.138-.226-2.149-.674-3.025Z" fill="#fff"></path><path d="M20 21H0V1h20L9.793 10.855 20 21Z" fill="url(#kotlin-logo-large_svg__a)"></path><defs><radialGradient id="kotlin-logo-large_svg__a" cx="0" cy="0" r="1" gradientUnits="userSpaceOnUse" gradientTransform="translate(19.335 1.822) scale(22.9097)"><stop offset="0.003" stop-color="#EF4857"></stop><stop offset="0.469" stop-color="#D211EC"></stop><stop offset="1" stop-color="#7F52FF"></stop></radialGradient></defs></svg> 
