<svg width="456" height="240" fill="none" xmlns="http://www.w3.org/2000/svg"><path d="M320 192l-5.774-10h11.548L320 192zm-42-28v-1 1zm38 0v1-1zm5 4v15h-2v-15h2zm-46-24v16h-2v-16h2zm3 19h38v2h-38v-2zm-3-3a3 3 0 003 3v2a5 5 0 01-5-5h2zm44 8a3 3 0 00-3-3v-2a5 5 0 015 5h-2z" fill="#A3A3A4"/><path d="M228 192l5.774-10h-11.548L228 192zm42-28v-1 1zm-38 0v1-1zm-5 4v15h2v-15h-2zm46-24v16h2v-16h-2zm-3 19h-38v2h38v-2zm3-3a3 3 0 01-3 3v2a5 5 0 005-5h-2zm-44 8a3 3 0 013-3v-2a5 5 0 00-5 5h2z" fill="#A3A3A4"/><path d="M136 192l5.773-10h-11.547L136 192zm138-32h1-1zm-4 4v-1 1zm-130 0v1-1zm-5 4v15h2v-15h-2zm138-24v16h2v-16h-2zm-3 19H140v2h130v-2zm3-3a3 3 0 01-3 3v2a5 5 0 005-5h-2zm-136 8a3 3 0 013-3v-2a5 5 0 00-5 5h2zM44 192l5.773-10H38.227L44 192zM228 64h1-1zm-4 4v-1 1zM48 68v1-1zm-5 4v111h2V72h-2zm184-24v16h2V48h-2zm-3 19H48v2h176v-2zm3-3a3 3 0 01-3 3v2a5 5 0 005-5h-2zM45 72a3 3 0 013-3v-2a5 5 0 00-5 5h2z" fill="#A3A3A4"/><path d="M274 96l-5.774-10h11.548L274 96zm-42-28v-1 1zm38 0v1-1zm5 4v15h-2V72h2zm-46-24v16h-2V48h2zm3 19h38v2h-38v-2zm-3-3a3 3 0 003 3v2a5 5 0 01-5-5h2zm44 8a3 3 0 00-3-3v-2a5 5 0 015 5h-2zM412 192l-5.773-10h11.547L412 192zm-138-32h-1 1zm4 4v-1 1zm130 0v1-1zm5 4v15h-2v-15h2zm-138-24v16h-2v-16h2zm3 19h130v2H278v-2zm-3-3a3 3 0 003 3v2a5 5 0 01-5-5h2zm136 8a3 3 0 00-3-3v-2a5 5 0 015 5h-2z" fill="#A3A3A4"/><rect x="116" width="224" height="48" rx="6" fill="#7F52FF"/><path d="M144.992 30.192c-1.024 0-1.955-.25-2.792-.752a5.367 5.367 0 01-1.96-2.08c-.475-.885-.712-1.872-.712-2.96 0-1.088.237-2.072.712-2.952a5.295 5.295 0 014.752-2.84c.842 0 1.629.181 2.36.544a5.197 5.197 0 011.816 1.424c.474.592.762 1.221.864 1.888h-1.328c-.107-.453-.339-.883-.696-1.288a3.968 3.968 0 00-1.336-.976 3.868 3.868 0 00-1.68-.376c-.779 0-1.48.197-2.104.592-.619.39-1.104.933-1.456 1.632-.352.693-.528 1.477-.528 2.352 0 .875.176 1.661.528 2.36a4.08 4.08 0 001.456 1.632c.624.39 1.325.584 2.104.584a3.94 3.94 0 001.68-.368c.533-.25.978-.579 1.336-.984.357-.405.589-.835.696-1.288h1.328c-.102.667-.39 1.296-.864 1.888a5.28 5.28 0 01-1.816 1.432 5.303 5.303 0 01-2.36.536zm10.809 0a4.192 4.192 0 01-2.128-.552 4.075 4.075 0 01-1.504-1.536c-.363-.656-.544-1.39-.544-2.2 0-.81.181-1.541.544-2.192a3.986 3.986 0 011.512-1.536 4.145 4.145 0 012.128-.56c.779 0 1.485.187 2.12.56a3.96 3.96 0 011.496 1.528c.368.65.552 1.384.552 2.2 0 .816-.184 1.55-.552 2.2a4.018 4.018 0 01-1.496 1.536 4.165 4.165 0 01-2.128.552zm-2.832-4.288c0 .613.123 1.157.368 1.632.251.47.592.835 1.024 1.096.437.261.923.392 1.456.392.533 0 1.013-.13 1.44-.392a2.74 2.74 0 001.008-1.096c.245-.475.368-1.019.368-1.632s-.123-1.157-.368-1.632a2.704 2.704 0 00-2.456-1.496c-.533 0-1.016.13-1.448.392-.432.261-.773.63-1.024 1.104-.245.475-.368 1.019-.368 1.632zm9.142-4.096h1.232v1.384c.245-.507.584-.896 1.016-1.168.437-.272.949-.408 1.536-.408.613 0 1.146.147 1.6.44.453.293.792.707 1.016 1.24a2.951 2.951 0 011.096-1.24c.469-.293 1.01-.44 1.624-.44.581 0 1.096.133 1.544.4.453.261.805.635 1.056 1.12.25.485.376 1.05.376 1.696V30h-1.28v-5.112c0-.677-.171-1.21-.512-1.6-.336-.39-.811-.584-1.424-.584-.438 0-.822.101-1.152.304-.331.197-.587.48-.768.848-.182.363-.272.792-.272 1.288V30h-1.28v-5.112c0-.677-.171-1.21-.512-1.6-.336-.39-.811-.584-1.424-.584-.443 0-.83.099-1.16.296-.331.197-.587.48-.768.848-.176.368-.264.8-.264 1.296V30h-1.28v-8.192zm14.68 0h1.232v1.384c.245-.507.584-.896 1.016-1.168.437-.272.949-.408 1.536-.408.613 0 1.147.147 1.6.44.453.293.792.707 1.016 1.24a2.958 2.958 0 011.096-1.24c.469-.293 1.011-.44 1.624-.44.581 0 1.096.133 1.544.4.453.261.805.635 1.056 1.12.251.485.376 1.05.376 1.696V30h-1.28v-5.112c0-.677-.171-1.21-.512-1.6-.336-.39-.811-.584-1.424-.584-.437 0-.821.101-1.152.304-.331.197-.587.48-.768.848-.181.363-.272.792-.272 1.288V30h-1.28v-5.112c0-.677-.171-1.21-.512-1.6-.336-.39-.811-.584-1.424-.584-.443 0-.829.099-1.16.296-.331.197-.587.48-.768.848-.176.368-.264.8-.264 1.296V30h-1.28v-8.192zm18.16 8.384a4.192 4.192 0 01-2.128-.552 4.075 4.075 0 01-1.504-1.536c-.363-.656-.544-1.39-.544-2.2 0-.81.181-1.541.544-2.192a3.986 3.986 0 011.512-1.536 4.145 4.145 0 012.128-.56c.779 0 1.485.187 2.12.56a3.96 3.96 0 011.496 1.528c.368.65.552 1.384.552 2.2 0 .816-.184 1.55-.552 2.2a4.018 4.018 0 01-1.496 1.536 4.165 4.165 0 01-2.128.552zm-2.832-4.288c0 .613.123 1.157.368 1.632.251.47.592.835 1.024 1.096.437.261.923.392 1.456.392.533 0 1.013-.13 1.44-.392a2.74 2.74 0 001.008-1.096c.245-.475.368-1.019.368-1.632s-.123-1.157-.368-1.632a2.704 2.704 0 00-2.456-1.496c-.533 0-1.016.13-1.448.392-.432.261-.773.63-1.024 1.104-.245.475-.368 1.019-.368 1.632zm9.142-4.096h1.232v1.328c.277-.49.645-.867 1.104-1.128.464-.261 1-.392 1.608-.392.586 0 1.106.125 1.56.376.453.25.808.621 1.064 1.112.261.485.392 1.07.392 1.752V30h-1.28v-5.016c0-.71-.184-1.261-.552-1.656-.368-.395-.875-.592-1.52-.592-.459 0-.864.101-1.216.304a2.122 2.122 0 00-.824.856 2.627 2.627 0 00-.288 1.248V30h-1.28v-8.192zm13.837-3.008h1.656l4.016 8.976.208.568.2-.568 3.944-8.976h1.688V30h-1.328v-9.056L221.522 30h-1.112l-3.992-9.008V30h-1.32V18.8zm21.58 11.2h-1.232v-1.328c-.278.49-.648.867-1.112 1.128-.459.261-.992.392-1.6.392-.587 0-1.107-.125-1.56-.376a2.67 2.67 0 01-1.072-1.104c-.256-.49-.384-1.077-.384-1.76v-5.144h1.28v5.016c0 .71.184 1.261.552 1.656.368.395.874.592 1.52.592.458 0 .864-.101 1.216-.304.352-.203.624-.485.816-.848a2.62 2.62 0 00.296-1.256v-4.856h1.28V30zm2.819-11.2h1.28V30h-1.28V18.8zm6.735 11.2c-.39 0-.744-.083-1.064-.248a1.944 1.944 0 01-.744-.696 1.869 1.869 0 01-.272-.992l-.008-5.12h-1.44l.008-1.136h.888a.646.646 0 00.488-.192.661.661 0 00.192-.488v-1.32h1.152v2h1.976l-.008 1.136h-1.976l.008 5.04c0 .25.082.461.248.632.17.165.381.248.632.248h1.088V30h-1.168zm3.423-8.192h1.28V30h-1.28v-8.192zm1.392-3.008v1.52h-1.504V18.8h1.504zm3.958 3.008v1.448c.309-.517.725-.92 1.248-1.208.523-.288 1.123-.432 1.8-.432.763 0 1.44.181 2.032.544a3.643 3.643 0 011.392 1.512c.336.65.504 1.395.504 2.232 0 .837-.168 1.581-.504 2.232a3.697 3.697 0 01-1.392 1.52c-.592.357-1.269.536-2.032.536-.667 0-1.259-.139-1.776-.416a3.222 3.222 0 01-1.24-1.168v3.968h-1.28V21.808h1.248zm.032 4.096c0 .613.117 1.157.352 1.632.24.47.573.837 1 1.104.427.261.915.392 1.464.392a2.69 2.69 0 001.448-.392c.421-.267.749-.635.984-1.104.235-.475.352-1.019.352-1.632s-.117-1.155-.352-1.624a2.648 2.648 0 00-.984-1.104 2.648 2.648 0 00-1.448-.4 2.676 2.676 0 00-2.464 1.504c-.235.47-.352 1.01-.352 1.624zm9.072-7.104h1.28V30h-1.28V18.8zm6.99 2.816c.619 0 1.163.115 1.632.344.469.224.832.555 1.088.992.261.432.392.947.392 1.544V30h-1.248v-1.336a2.493 2.493 0 01-1.008 1.136c-.443.261-.968.392-1.576.392-.523 0-.995-.101-1.416-.304a2.44 2.44 0 01-.992-.84 2.13 2.13 0 01-.36-1.216c0-.427.109-.819.328-1.176.224-.363.531-.659.92-.888.395-.23.837-.37 1.328-.424l2.184-.24a.606.606 0 00.424-.224c.101-.128.152-.315.152-.56 0-.325-.077-.61-.232-.856a1.52 1.52 0 00-.656-.568 2.137 2.137 0 00-.968-.208c-.368 0-.699.064-.992.192-.293.123-.531.29-.712.504a1.355 1.355 0 00-.32.68h-1.28c.064-.464.245-.88.544-1.248a3.121 3.121 0 011.176-.88 3.878 3.878 0 011.592-.32zm-2.16 6.144c0 .277.072.523.216.736.149.213.355.381.616.504.261.117.56.176.896.176.459 0 .859-.093 1.2-.28.347-.187.613-.448.8-.784.187-.341.28-.733.28-1.176V26l-2.584.288c-.427.048-.771.208-1.032.48a1.38 1.38 0 00-.392.992zM279.43 30c-.39 0-.744-.083-1.064-.248a1.944 1.944 0 01-.744-.696 1.869 1.869 0 01-.272-.992l-.008-5.12h-1.44l.008-1.136h.888a.646.646 0 00.488-.192.661.661 0 00.192-.488v-1.32h1.152v2h1.976l-.008 1.136h-1.976l.008 5.04c0 .25.082.461.248.632.17.165.381.248.632.248h1.088V30h-1.168zm4.063-7.056h-1.44v-1.136h1.44v-1.072c0-.379.088-.715.264-1.008.176-.293.421-.52.736-.68a2.29 2.29 0 011.08-.248h1.312v1.136h-1.232a.866.866 0 00-.64.248c-.16.16-.24.37-.24.632v.992h2.032v1.136h-2.032V30h-1.28v-7.056zm8.583 7.248a4.192 4.192 0 01-2.128-.552 4.075 4.075 0 01-1.504-1.536c-.363-.656-.544-1.39-.544-2.2 0-.81.181-1.541.544-2.192a3.986 3.986 0 011.512-1.536 4.145 4.145 0 012.128-.56c.778 0 1.485.187 2.12.56a3.968 3.968 0 011.496 1.528c.368.65.552 1.384.552 2.2 0 .816-.184 1.55-.552 2.2a4.025 4.025 0 01-1.496 1.536 4.165 4.165 0 01-2.128.552zm-2.832-4.288c0 .613.122 1.157.368 1.632.25.47.592.835 1.024 1.096.437.261.922.392 1.456.392.533 0 1.013-.13 1.44-.392a2.755 2.755 0 001.008-1.096c.245-.475.368-1.019.368-1.632s-.123-1.157-.368-1.632a2.704 2.704 0 00-2.456-1.496c-.534 0-1.016.13-1.448.392-.432.261-.774.63-1.024 1.104-.246.475-.368 1.019-.368 1.632zm9.141-4.096h1.28v1.36c.262-.464.6-.819 1.016-1.064.416-.25.894-.376 1.432-.376h.288v1.336h-.336c-.485 0-.909.093-1.272.28a2.002 2.002 0 00-.84.8c-.192.341-.288.744-.288 1.208V30h-1.28v-8.192zm5.743 0h1.232v1.384c.245-.507.584-.896 1.016-1.168.437-.272.949-.408 1.536-.408.613 0 1.147.147 1.6.44.453.293.792.707 1.016 1.24a2.958 2.958 0 011.096-1.24c.469-.293 1.011-.44 1.624-.44.581 0 1.096.133 1.544.4.453.261.805.635 1.056 1.12.251.485.376 1.05.376 1.696V30h-1.28v-5.112c0-.677-.171-1.21-.512-1.6-.336-.39-.811-.584-1.424-.584-.437 0-.821.101-1.152.304-.331.197-.587.48-.768.848-.181.363-.272.792-.272 1.288V30h-1.28v-5.112c0-.677-.171-1.21-.512-1.6-.336-.39-.811-.584-1.424-.584-.443 0-.829.099-1.16.296-.331.197-.587.48-.768.848-.176.368-.264.8-.264 1.296V30h-1.28v-8.192z" fill="#fff"/><rect x="176" y="96" width="196" height="48" rx="6" fill="#7F52FF"/><path d="M203.671 126.192c-1.024 0-1.954-.251-2.792-.752a5.377 5.377 0 01-1.96-2.08c-.474-.885-.712-1.872-.712-2.96 0-1.088.238-2.072.712-2.952a5.302 5.302 0 014.752-2.84c.843 0 1.63.181 2.36.544a5.185 5.185 0 011.816 1.424c.475.592.763 1.221.864 1.888h-1.328c-.106-.453-.338-.883-.696-1.288a3.948 3.948 0 00-1.336-.976 3.864 3.864 0 00-1.68-.376c-.778 0-1.48.197-2.104.592-.618.389-1.104.933-1.456 1.632-.352.693-.528 1.477-.528 2.352 0 .875.176 1.661.528 2.36a4.091 4.091 0 001.456 1.632 3.897 3.897 0 002.104.584c.592 0 1.152-.123 1.68-.368a4.049 4.049 0 001.336-.984c.358-.405.59-.835.696-1.288h1.328c-.101.667-.389 1.296-.864 1.888a5.274 5.274 0 01-1.816 1.432 5.301 5.301 0 01-2.36.536zm7.33-11.392h1.28V126h-1.28v-11.2zm4.102 3.008h1.28V126h-1.28v-8.192zm1.392-3.008v1.52h-1.504v-1.52h1.504zm6.038 11.392c-.768 0-1.459-.184-2.072-.552a3.863 3.863 0 01-1.44-1.528c-.341-.656-.512-1.397-.512-2.224 0-.805.173-1.533.52-2.184a3.917 3.917 0 011.448-1.528 3.88 3.88 0 012.056-.56c.773 0 1.451.184 2.032.552a3.62 3.62 0 011.352 1.528c.32.651.48 1.387.48 2.208v.312h-6.584c.053.56.205 1.056.456 1.488.251.432.579.768.984 1.008s.859.36 1.36.36c.539 0 1.013-.099 1.424-.296.411-.197.709-.467.896-.808h1.28c-.096.341-.299.683-.608 1.024-.304.341-.72.627-1.248.856-.523.229-1.131.344-1.824.344zm2.536-5.032c-.107-.747-.379-1.336-.816-1.768-.432-.432-1-.648-1.704-.648-.475 0-.901.099-1.28.296a2.432 2.432 0 00-.936.84 3.165 3.165 0 00-.488 1.28h5.224zm3.457-3.352h1.232v1.328a2.908 2.908 0 011.104-1.128c.464-.261 1-.392 1.608-.392.586 0 1.106.125 1.56.376.453.251.808.621 1.064 1.112.261.485.392 1.069.392 1.752V126h-1.28v-5.016c0-.709-.184-1.261-.552-1.656-.368-.395-.875-.592-1.52-.592-.459 0-.864.101-1.216.304a2.124 2.124 0 00-.824.856 2.629 2.629 0 00-.288 1.248V126h-1.28v-8.192zM240.697 126c-.389 0-.744-.083-1.064-.248a1.963 1.963 0 01-.744-.696 1.878 1.878 0 01-.272-.992l-.008-5.12h-1.44l.008-1.136h.888a.643.643 0 00.488-.192.662.662 0 00.192-.488v-1.32h1.152v2h1.976l-.008 1.136h-1.976l.008 5.04c0 .251.083.461.248.632a.876.876 0 00.632.248h1.088V126h-1.168zm7.721-11.2h1.656l4.016 8.976.208.568.2-.568 3.944-8.976h1.688V126h-1.328v-9.056l-3.96 9.056h-1.112l-3.992-9.008V126h-1.32v-11.2zm21.58 11.2h-1.232v-1.328a2.893 2.893 0 01-1.112 1.128c-.459.261-.992.392-1.6.392-.587 0-1.107-.125-1.56-.376a2.68 2.68 0 01-1.072-1.104c-.256-.491-.384-1.077-.384-1.76v-5.144h1.28v5.016c0 .709.184 1.261.552 1.656.368.395.875.592 1.52.592.459 0 .864-.101 1.216-.304.352-.203.624-.485.816-.848a2.62 2.62 0 00.296-1.256v-4.856h1.28V126zm2.82-11.2h1.28V126h-1.28v-11.2zm6.734 11.2c-.39 0-.744-.083-1.064-.248a1.949 1.949 0 01-.744-.696 1.869 1.869 0 01-.272-.992l-.008-5.12h-1.44l.008-1.136h.888a.646.646 0 00.488-.192.662.662 0 00.192-.488v-1.32h1.152v2h1.976l-.008 1.136h-1.976l.008 5.04a.87.87 0 00.248.632c.17.165.381.248.632.248h1.088V126h-1.168zm3.423-8.192h1.28V126h-1.28v-8.192zm1.392-3.008v1.52h-1.504v-1.52h1.504zm3.958 3.008v1.448c.31-.517.726-.92 1.248-1.208.523-.288 1.123-.432 1.8-.432.763 0 1.44.181 2.032.544a3.626 3.626 0 011.392 1.512c.336.651.504 1.395.504 2.232 0 .837-.168 1.581-.504 2.232a3.684 3.684 0 01-1.392 1.52c-.592.357-1.269.536-2.032.536-.666 0-1.258-.139-1.776-.416a3.229 3.229 0 01-1.24-1.168v3.968h-1.28v-10.768h1.248zm.032 4.096c0 .613.118 1.157.352 1.632.24.469.574.837 1 1.104a2.75 2.75 0 001.464.392c.544 0 1.027-.131 1.448-.392.422-.267.75-.635.984-1.104.235-.475.352-1.019.352-1.632s-.117-1.155-.352-1.624a2.63 2.63 0 00-2.432-1.504 2.68 2.68 0 00-2.464 1.504c-.234.469-.352 1.011-.352 1.624zm9.072-7.104h1.28V126h-1.28v-11.2zm6.99 2.816c.619 0 1.163.115 1.632.344.47.224.832.555 1.088.992.262.432.392.947.392 1.544V126h-1.248v-1.336a2.491 2.491 0 01-1.008 1.136c-.442.261-.968.392-1.576.392-.522 0-.994-.101-1.416-.304a2.445 2.445 0 01-.992-.84 2.13 2.13 0 01-.36-1.216c0-.427.11-.819.328-1.176.224-.363.531-.659.92-.888a3.331 3.331 0 011.328-.424l2.184-.24a.603.603 0 00.424-.224c.102-.128.152-.315.152-.56 0-.325-.077-.611-.232-.856a1.515 1.515 0 00-.656-.568 2.133 2.133 0 00-.968-.208c-.368 0-.698.064-.992.192-.293.123-.53.291-.712.504a1.364 1.364 0 00-.32.68h-1.28a2.49 2.49 0 01.544-1.248 3.121 3.121 0 011.176-.88 3.883 3.883 0 011.592-.32zm-2.16 6.144c0 .277.072.523.216.736.15.213.355.381.616.504.262.117.56.176.896.176.459 0 .859-.093 1.2-.28a1.95 1.95 0 00.8-.784c.187-.341.28-.733.28-1.176V122l-2.584.288c-.426.048-.77.208-1.032.48a1.38 1.38 0 00-.392.992zM312.75 126c-.389 0-.744-.083-1.064-.248a1.878 1.878 0 01-1.016-1.688l-.008-5.12h-1.44l.008-1.136h.888a.645.645 0 00.488-.192.662.662 0 00.192-.488v-1.32h1.152v2h1.976l-.008 1.136h-1.976l.008 5.04c0 .251.083.461.248.632a.874.874 0 00.632.248h1.088V126h-1.168zm4.063-7.056h-1.44v-1.136h1.44v-1.072c0-.379.088-.715.264-1.008.176-.293.422-.52.736-.68a2.293 2.293 0 011.08-.248h1.312v1.136h-1.232a.869.869 0 00-.64.248c-.16.16-.24.371-.24.632v.992h2.032v1.136h-2.032V126h-1.28v-7.056zm8.583 7.248a4.192 4.192 0 01-2.128-.552 4.07 4.07 0 01-1.504-1.536c-.363-.656-.544-1.389-.544-2.2 0-.811.181-1.541.544-2.192a3.986 3.986 0 011.512-1.536 4.148 4.148 0 012.128-.56c.779 0 1.485.187 2.12.56a3.959 3.959 0 011.496 1.528c.368.651.552 1.384.552 2.2 0 .816-.184 1.549-.552 2.2a4.014 4.014 0 01-1.496 1.536 4.165 4.165 0 01-2.128.552zm-2.832-4.288c0 .613.123 1.157.368 1.632.251.469.592.835 1.024 1.096.437.261.923.392 1.456.392.533 0 1.013-.131 1.44-.392a2.74 2.74 0 001.008-1.096c.245-.475.368-1.019.368-1.632s-.123-1.157-.368-1.632a2.708 2.708 0 00-1.016-1.104 2.706 2.706 0 00-1.44-.392c-.533 0-1.016.131-1.448.392a2.768 2.768 0 00-1.024 1.104c-.245.475-.368 1.019-.368 1.632zm9.142-4.096h1.28v1.36c.261-.464.6-.819 1.016-1.064.416-.251.893-.376 1.432-.376h.288v1.336h-.336c-.486 0-.91.093-1.272.28a1.99 1.99 0 00-.84.8c-.192.341-.288.744-.288 1.208V126h-1.28v-8.192zm5.742 0h1.232v1.384c.246-.507.584-.896 1.016-1.168.438-.272.95-.408 1.536-.408.614 0 1.147.147 1.6.44.454.293.792.707 1.016 1.24a2.965 2.965 0 011.096-1.24c.47-.293 1.011-.44 1.624-.44.582 0 1.096.133 1.544.4a2.67 2.67 0 011.056 1.12c.251.485.376 1.051.376 1.696V126h-1.28v-5.112c0-.677-.17-1.211-.512-1.6-.336-.389-.81-.584-1.424-.584-.437 0-.821.101-1.152.304-.33.197-.586.48-.768.848-.181.363-.272.792-.272 1.288V126h-1.28v-5.112c0-.677-.17-1.211-.512-1.6-.336-.389-.81-.584-1.424-.584-.442 0-.829.099-1.16.296-.33.197-.586.48-.768.848-.176.368-.264.8-.264 1.296V126h-1.28v-8.192z" fill="#fff"/><rect y="192" width="88" height="48" rx="6" fill="#E8E8E8"/><path d="M24.818 222.192c-.768 0-1.448-.141-2.04-.424a3.323 3.323 0 01-1.376-1.184c-.326-.507-.488-1.088-.488-1.744h1.36c0 .421.106.795.32 1.12.213.325.514.579.904.76.39.181.834.272 1.336.272.496 0 .93-.083 1.304-.248a2.01 2.01 0 00.872-.712c.208-.309.312-.664.312-1.064 0-.507-.152-.941-.456-1.304-.299-.363-.699-.587-1.2-.672l-1.808-.312a3.455 3.455 0 01-1.416-.568 2.868 2.868 0 01-.92-1.056 3 3 0 01-.32-1.376c0-.581.152-1.104.456-1.568.31-.469.736-.837 1.28-1.104.55-.267 1.165-.4 1.848-.4.704 0 1.33.133 1.88.4.55.261.976.627 1.28 1.096a2.89 2.89 0 01.456 1.608h-1.36a1.77 1.77 0 00-.28-.984 1.838 1.838 0 00-.792-.68 2.688 2.688 0 00-1.168-.24c-.443 0-.835.077-1.176.232a1.877 1.877 0 00-.8.656c-.187.283-.28.611-.28.984 0 .443.141.824.424 1.144.288.32.664.52 1.128.6l1.84.32a3.287 3.287 0 011.424.616c.416.315.738.701.968 1.16.23.453.344.931.344 1.432a2.94 2.94 0 01-.488 1.648c-.326.491-.782.88-1.368 1.168-.587.283-1.254.424-2 .424zm9.577 0c-.768 0-1.459-.184-2.072-.552a3.859 3.859 0 01-1.44-1.528c-.341-.656-.512-1.397-.512-2.224 0-.805.174-1.533.52-2.184a3.915 3.915 0 011.448-1.528 3.88 3.88 0 012.056-.56c.773 0 1.45.184 2.032.552a3.619 3.619 0 011.352 1.528c.32.651.48 1.387.48 2.208v.312h-6.584a3.61 3.61 0 00.456 1.488c.25.432.579.768.984 1.008s.859.36 1.36.36c.539 0 1.014-.099 1.424-.296.41-.197.71-.467.896-.808h1.28c-.096.341-.299.683-.608 1.024-.304.341-.72.627-1.248.856-.523.229-1.13.344-1.824.344zm2.536-5.032c-.106-.747-.378-1.336-.816-1.768-.432-.432-1-.648-1.704-.648-.474 0-.901.099-1.28.296-.379.192-.69.472-.936.84a3.16 3.16 0 00-.488 1.28h5.224zm3.457-3.352h1.28v1.36a2.79 2.79 0 011.016-1.064c.416-.251.893-.376 1.432-.376h.288v1.336h-.336c-.485 0-.91.093-1.272.28a1.994 1.994 0 00-.84.8c-.192.341-.288.744-.288 1.208V222h-1.28v-8.192zm4.679 0h1.392l2.496 6.48 2.416-6.48h1.36L49.507 222h-1.2l-3.24-8.192zm12.588 8.384c-.768 0-1.459-.184-2.072-.552a3.859 3.859 0 01-1.44-1.528c-.342-.656-.512-1.397-.512-2.224 0-.805.173-1.533.52-2.184a3.915 3.915 0 011.448-1.528 3.88 3.88 0 012.056-.56c.773 0 1.45.184 2.032.552a3.619 3.619 0 011.352 1.528c.32.651.48 1.387.48 2.208v.312h-6.584a3.61 3.61 0 00.456 1.488c.25.432.578.768.984 1.008.405.24.858.36 1.36.36.538 0 1.013-.099 1.424-.296.41-.197.709-.467.896-.808h1.28c-.096.341-.299.683-.608 1.024-.304.341-.72.627-1.248.856-.523.229-1.131.344-1.824.344zm2.536-5.032c-.107-.747-.379-1.336-.816-1.768-.432-.432-1-.648-1.704-.648-.475 0-.902.099-1.28.296-.379.192-.691.472-.936.84a3.16 3.16 0 00-.488 1.28h5.224zm3.456-3.352h1.28v1.36a2.79 2.79 0 011.016-1.064c.416-.251.894-.376 1.433-.376h.287v1.336h-.335c-.486 0-.91.093-1.273.28a1.994 1.994 0 00-.84.8c-.192.341-.288.744-.288 1.208V222h-1.28v-8.192z" fill="#19191C"/><rect x="92" y="192" width="88" height="48" rx="6" fill="#E8E8E8"/><path d="M110.408 210.8h1.432l4.304 11.2h-1.408l-1.08-2.976h-4.952L107.696 222h-1.44l4.152-11.2zm2.816 7.072l-1.912-5.208-.192-.68-.192.68-1.816 5.208h4.112zm4.69-4.064h1.232v1.328a2.922 2.922 0 011.104-1.128c.464-.261 1-.392 1.609-.392.586 0 1.106.125 1.559.376.454.251.809.621 1.065 1.112.261.485.392 1.069.392 1.752V222h-1.28v-5.016c0-.709-.184-1.261-.552-1.656-.369-.395-.875-.592-1.52-.592-.459 0-.865.101-1.217.304a2.13 2.13 0 00-.824.856 2.629 2.629 0 00-.288 1.248V222h-1.28v-8.192zm15.764 6.832c-.309.496-.723.88-1.24 1.152-.512.267-1.096.4-1.752.4-.763 0-1.443-.179-2.04-.536a3.765 3.765 0 01-1.392-1.52c-.331-.651-.496-1.395-.496-2.232 0-.837.165-1.581.496-2.232.336-.651.8-1.155 1.392-1.512.597-.363 1.277-.544 2.04-.544.656 0 1.24.136 1.752.408.517.267.931.648 1.24 1.144V210.8h1.28V222h-1.28v-1.36zm-5.576-2.736c0 .613.117 1.157.352 1.632.235.469.563.837.984 1.104.421.261.904.392 1.448.392a2.77 2.77 0 001.352-.328c.405-.224.731-.536.976-.936.251-.405.405-.875.464-1.408v-.912c-.059-.533-.213-1-.464-1.4a2.534 2.534 0 00-.976-.936 2.72 2.72 0 00-1.352-.336c-.544 0-1.027.133-1.448.4a2.644 2.644 0 00-.984 1.104c-.235.469-.352 1.011-.352 1.624zm9.564-4.096h1.28v1.36c.261-.464.6-.819 1.016-1.064.416-.251.893-.376 1.432-.376h.288v1.336h-.336c-.486 0-.91.093-1.272.28a1.99 1.99 0 00-.84.8c-.192.341-.288.744-.288 1.208V222h-1.28v-8.192zm9.222 8.384a4.194 4.194 0 01-2.128-.552 4.078 4.078 0 01-1.504-1.536c-.362-.656-.544-1.389-.544-2.2 0-.811.182-1.541.544-2.192a3.986 3.986 0 011.512-1.536 4.15 4.15 0 012.128-.56c.779 0 1.486.187 2.12.56a3.952 3.952 0 011.496 1.528c.368.651.552 1.384.552 2.2 0 .816-.184 1.549-.552 2.2a4.007 4.007 0 01-1.496 1.536 4.163 4.163 0 01-2.128.552zm-2.832-4.288c0 .613.123 1.157.368 1.632.251.469.592.835 1.024 1.096a2.79 2.79 0 001.456.392c.534 0 1.014-.131 1.44-.392a2.74 2.74 0 001.008-1.096c.246-.475.368-1.019.368-1.632s-.122-1.157-.368-1.632a2.701 2.701 0 00-2.456-1.496c-.533 0-1.016.131-1.448.392a2.768 2.768 0 00-1.024 1.104c-.245.475-.368 1.019-.368 1.632zm9.142-4.096h1.28V222h-1.28v-8.192zm1.392-3.008v1.52h-1.504v-1.52h1.504zm8.934 9.84c-.309.496-.723.88-1.24 1.152-.512.267-1.096.4-1.752.4-.763 0-1.443-.179-2.04-.536a3.765 3.765 0 01-1.392-1.52c-.331-.651-.496-1.395-.496-2.232 0-.837.165-1.581.496-2.232.336-.651.8-1.155 1.392-1.512.597-.363 1.277-.544 2.04-.544.656 0 1.24.136 1.752.408.517.267.931.648 1.24 1.144V210.8h1.28V222h-1.28v-1.36zm-5.576-2.736c0 .613.117 1.157.352 1.632.235.469.563.837.984 1.104.421.261.904.392 1.448.392a2.77 2.77 0 001.352-.328c.405-.224.731-.536.976-.936.251-.405.405-.875.464-1.408v-.912c-.059-.533-.213-1-.464-1.4a2.534 2.534 0 00-.976-.936 2.72 2.72 0 00-1.352-.336c-.544 0-1.027.133-1.448.4a2.644 2.644 0 00-.984 1.104c-.235.469-.352 1.011-.352 1.624z" fill="#19191C"/><rect x="184" y="192" width="88" height="48" rx="6" fill="#E8E8E8"/><path d="M216.087 213.808h1.28V222h-1.28v-8.192zm1.392-3.008v1.52h-1.504v-1.52h1.504zm7.758 10.176c.784 0 1.493-.195 2.128-.584a4.078 4.078 0 001.488-1.632c.363-.699.544-1.485.544-2.36 0-.88-.179-1.667-.536-2.36a3.95 3.95 0 00-1.48-1.632c-.629-.389-1.344-.584-2.144-.584-.789 0-1.501.197-2.136.592a4.102 4.102 0 00-1.488 1.624c-.357.693-.536 1.48-.536 2.36 0 .88.179 1.667.536 2.36a4.166 4.166 0 001.488 1.632 4.008 4.008 0 002.136.584zm-5.536-4.576c0-1.088.243-2.072.728-2.952a5.373 5.373 0 011.992-2.08c.843-.507 1.781-.76 2.816-.76 1.029 0 1.965.253 2.808.76a5.357 5.357 0 012 2.08c.485.88.728 1.864.728 2.952 0 1.088-.243 2.075-.728 2.96a5.433 5.433 0 01-2 2.08c-.843.501-1.779.752-2.808.752-1.035 0-1.973-.251-2.816-.752a5.45 5.45 0 01-1.992-2.08c-.485-.885-.728-1.872-.728-2.96zm16.787 5.792c-.768 0-1.448-.141-2.04-.424a3.317 3.317 0 01-1.376-1.184c-.326-.507-.488-1.088-.488-1.744h1.36c0 .421.106.795.32 1.12.213.325.514.579.904.76.389.181.834.272 1.336.272.496 0 .93-.083 1.304-.248.378-.171.669-.408.872-.712.208-.309.312-.664.312-1.064 0-.507-.152-.941-.456-1.304-.299-.363-.699-.587-1.2-.672l-1.808-.312a3.455 3.455 0 01-1.416-.568 2.866 2.866 0 01-.92-1.056 2.993 2.993 0 01-.32-1.376c0-.581.152-1.104.456-1.568a3.164 3.164 0 011.28-1.104c.549-.267 1.165-.4 1.848-.4.704 0 1.33.133 1.88.4a3.04 3.04 0 011.28 1.096 2.89 2.89 0 01.456 1.608h-1.36c0-.368-.094-.696-.28-.984a1.842 1.842 0 00-.792-.68 2.69 2.69 0 00-1.168-.24c-.443 0-.835.077-1.176.232a1.873 1.873 0 00-.8.656c-.187.283-.28.611-.28.984 0 .443.141.824.424 1.144.288.32.664.52 1.128.6l1.84.32a3.289 3.289 0 011.424.616c.416.315.738.701.968 1.16.229.453.344.931.344 1.432 0 .603-.163 1.152-.488 1.648-.326.491-.782.88-1.368 1.168-.587.283-1.254.424-2 .424z" fill="#19191C"/><rect x="276" y="192" width="88" height="48" rx="6" fill="#E8E8E8"/><path d="M289.859 210.8h3.968c1.051 0 1.981.237 2.792.712a4.885 4.885 0 011.904 1.976c.453.848.68 1.819.68 2.912s-.227 2.064-.68 2.912a4.943 4.943 0 01-1.904 1.984c-.811.469-1.741.704-2.792.704h-3.968v-11.2zm3.968 9.96c.779 0 1.472-.184 2.08-.552a3.755 3.755 0 001.416-1.536c.336-.661.504-1.419.504-2.272 0-.853-.168-1.608-.504-2.264a3.746 3.746 0 00-1.416-1.544c-.608-.368-1.301-.552-2.08-.552h-2.64v8.72h2.64zm11.033 1.432c-.768 0-1.459-.184-2.072-.552a3.849 3.849 0 01-1.44-1.528c-.342-.656-.512-1.397-.512-2.224 0-.805.173-1.533.52-2.184a3.91 3.91 0 011.448-1.528 3.877 3.877 0 012.056-.56c.773 0 1.45.184 2.032.552a3.626 3.626 0 011.352 1.528c.32.651.48 1.387.48 2.208v.312h-6.584c.053.56.205 1.056.456 1.488.25.432.578.768.984 1.008.405.24.858.36 1.36.36.538 0 1.013-.099 1.424-.296.41-.197.709-.467.896-.808h1.28c-.096.341-.299.683-.608 1.024-.304.341-.72.627-1.248.856-.523.229-1.131.344-1.824.344zm2.536-5.032c-.107-.747-.379-1.336-.816-1.768-.432-.432-1-.648-1.704-.648a2.73 2.73 0 00-1.28.296 2.432 2.432 0 00-.936.84 3.15 3.15 0 00-.488 1.28h5.224zm6.161 5.032a4.557 4.557 0 01-1.68-.296c-.496-.197-.894-.472-1.192-.824a2.005 2.005 0 01-.472-1.208h1.304a1.1 1.1 0 00.304.664c.181.192.421.344.72.456.298.112.632.168 1 .168.373 0 .701-.061.984-.184.288-.123.509-.293.664-.512.16-.219.24-.467.24-.744 0-.299-.086-.549-.256-.752a1.1 1.1 0 00-.696-.392l-1.976-.36c-.63-.117-1.12-.371-1.472-.76-.352-.395-.528-.893-.528-1.496 0-.432.122-.824.368-1.176.25-.357.6-.64 1.048-.848.448-.208.96-.312 1.536-.312.57 0 1.085.093 1.544.28.458.187.824.445 1.096.776.272.331.418.699.44 1.104h-1.304a.929.929 0 00-.264-.576 1.54 1.54 0 00-.624-.4 2.542 2.542 0 00-.88-.144c-.331 0-.624.056-.88.168a1.436 1.436 0 00-.6.464 1.09 1.09 0 00-.208.656c0 .277.077.507.232.688.154.181.381.299.68.352l2.024.36a2.55 2.55 0 011.072.44c.304.219.533.491.688.816.16.325.24.68.24 1.064 0 .48-.139.912-.416 1.296-.272.384-.648.685-1.128.904a3.83 3.83 0 01-1.608.328zm5.335-11.392h1.28v6.848l3.712-3.84h1.592l-3.736 3.904 3.88 4.288h-1.648l-3.8-4.128V222h-1.28v-11.2zM329.72 222c-.389 0-.744-.083-1.064-.248a1.878 1.878 0 01-1.016-1.688l-.008-5.12h-1.44l.008-1.136h.888a.645.645 0 00.488-.192.662.662 0 00.192-.488v-1.32h1.152v2h1.976l-.008 1.136h-1.976l.008 5.04c0 .251.083.461.248.632a.874.874 0 00.632.248h1.088V222h-1.168zm6.903.192a4.194 4.194 0 01-2.128-.552 4.078 4.078 0 01-1.504-1.536c-.362-.656-.544-1.389-.544-2.2 0-.811.182-1.541.544-2.192a3.986 3.986 0 011.512-1.536 4.15 4.15 0 012.128-.56c.779 0 1.486.187 2.12.56a3.952 3.952 0 011.496 1.528c.368.651.552 1.384.552 2.2 0 .816-.184 1.549-.552 2.2a4.007 4.007 0 01-1.496 1.536 4.163 4.163 0 01-2.128.552zm-2.832-4.288c0 .613.123 1.157.368 1.632.251.469.592.835 1.024 1.096a2.79 2.79 0 001.456.392c.534 0 1.014-.131 1.44-.392a2.74 2.74 0 001.008-1.096c.246-.475.368-1.019.368-1.632s-.122-1.157-.368-1.632a2.701 2.701 0 00-2.456-1.496c-.533 0-1.016.131-1.448.392a2.768 2.768 0 00-1.024 1.104c-.245.475-.368 1.019-.368 1.632zm10.39-4.096v1.448c.309-.517.725-.92 1.248-1.208.523-.288 1.123-.432 1.8-.432.763 0 1.44.181 2.032.544a3.64 3.64 0 011.392 1.512c.336.651.504 1.395.504 2.232 0 .837-.168 1.581-.504 2.232a3.697 3.697 0 01-1.392 1.52c-.592.357-1.269.536-2.032.536-.667 0-1.259-.139-1.776-.416a3.222 3.222 0 01-1.24-1.168v3.968h-1.28v-10.768h1.248zm.032 4.096c0 .613.117 1.157.352 1.632.24.469.573.837 1 1.104a2.75 2.75 0 001.464.392c.544 0 1.027-.131 1.448-.392.421-.267.749-.635.984-1.104.235-.475.352-1.019.352-1.632s-.117-1.155-.352-1.624a2.644 2.644 0 00-.984-1.104 2.646 2.646 0 00-1.448-.4c-.549 0-1.037.133-1.464.4-.427.261-.76.629-1 1.104-.235.469-.352 1.011-.352 1.624z" fill="#19191C"/><rect x="368" y="192" width="88" height="48" rx="6" fill="#E8E8E8"/><path d="M395.965 210.8l3.064 9.264 2.904-9.264h1.264l2.936 9.264 3-9.264h1.392l-3.784 11.2h-1.296l-2.904-9.104-2.952 9.104h-1.296l-3.768-11.2h1.44zm19.036 11.392c-.768 0-1.458-.184-2.072-.552a3.863 3.863 0 01-1.44-1.528c-.341-.656-.512-1.397-.512-2.224 0-.805.174-1.533.52-2.184a3.917 3.917 0 011.448-1.528 3.882 3.882 0 012.056-.56c.774 0 1.451.184 2.032.552a3.613 3.613 0 011.352 1.528c.32.651.48 1.387.48 2.208v.312h-6.584c.054.56.206 1.056.456 1.488.251.432.579.768.984 1.008.406.24.859.36 1.36.36.539 0 1.014-.099 1.424-.296.411-.197.71-.467.896-.808h1.28c-.096.341-.298.683-.608 1.024-.304.341-.72.627-1.248.856-.522.229-1.13.344-1.824.344zm2.536-5.032c-.106-.747-.378-1.336-.816-1.768-.432-.432-1-.648-1.704-.648-.474 0-.901.099-1.28.296-.378.192-.69.472-.936.84a3.165 3.165 0 00-.488 1.28h5.224zm3.457-6.36h1.28v4.368c.31-.496.72-.877 1.232-1.144.518-.272 1.104-.408 1.76-.408.763 0 1.44.181 2.032.544a3.626 3.626 0 011.392 1.512c.336.651.504 1.395.504 2.232 0 .837-.168 1.581-.504 2.232a3.684 3.684 0 01-1.392 1.52c-.592.357-1.269.536-2.032.536-.656 0-1.242-.133-1.76-.4a3.201 3.201 0 01-1.232-1.152V222h-1.28v-11.2zm1.28 7.56c.059.533.211 1.003.456 1.408.251.4.576.712.976.936.406.219.859.328 1.36.328.544 0 1.027-.131 1.448-.392.422-.267.75-.635.984-1.104.235-.475.352-1.019.352-1.632s-.117-1.155-.352-1.624a2.63 2.63 0 00-2.432-1.504c-.501 0-.954.112-1.36.336-.4.219-.725.531-.976.936-.245.4-.397.867-.456 1.4v.912z" fill="#19191C"/></svg>